<svg xmlns="http://www.w3.org/2000/svg" xmlns:xlink="http://www.w3.org/1999/xlink" width="135.745" height="39.095" viewBox="0 0 135.745 39.095">
  <defs>
    <linearGradient id="linear-gradient" x1="0.5" x2="0.5" y2="1" gradientUnits="objectBoundingBox">
      <stop offset="0" stop-color="#1c3969"/>
      <stop offset="0.045" stop-color="#1d3a6c"/>
      <stop offset="1" stop-color="#284ea1"/>
    </linearGradient>
    <linearGradient id="linear-gradient-2" x1="0.5" y1="0" x2="0.5" y2="1" xlink:href="#linear-gradient"/>
  </defs>
  <g id="벤처확인기업logo" transform="translate(-227.15 -440.46)">
    <g id="그룹_980" data-name="그룹 980" transform="translate(286.25 452.036)">
      <g id="그룹_978" data-name="그룹 978" transform="translate(0 10.99)">
        <path id="패스_16083" data-name="패스 16083" d="M343.335,484.217v2.544h1.332v-3.14h1.72v9.1h-1.72v-4.4h-1.332v2.56H337.91v-6.669h1.72v1.995h1.979v-1.995h1.725Zm-1.72,5.176v-1.7h-1.979v1.7Zm.332,5.8h7.28v1.565h-9.114v-4.415h1.839v2.85Zm7.073-2.156h-1.736V483.45h1.736Z" transform="translate(-337.91 -483.248)" fill="#fff"/>
        <path id="패스_16084" data-name="패스 16084" d="M363.035,485.315h2.834v-1.782h1.85v1.782h2.7v1.565h-2.7v1.073a4.976,4.976,0,0,0,.057.767,3.324,3.324,0,0,0,.181.658,2.955,2.955,0,0,0,.326.6,6.52,6.52,0,0,0,.492.606c.124.145.269.3.44.471s.347.342.528.518.368.357.554.534.373.352.56.513l-1.171,1.218c-.311-.29-.617-.586-.927-.891s-.6-.6-.871-.876c-.29-.3-.528-.56-.715-.772a2.2,2.2,0,0,1-.352-.5h-.031a3.464,3.464,0,0,1-.42.58c-.212.249-.44.5-.679.751-.269.28-.549.57-.839.86s-.637.627-1.042.99l-1.2-1.228q1.181-1.057,2.14-2.1a8.106,8.106,0,0,0,.534-.668,3.2,3.2,0,0,0,.347-.617,2.77,2.77,0,0,0,.181-.653,4.939,4.939,0,0,0,.052-.772v-1.073H363.03v-1.56Zm6.741,2.938h2.358v-4.8h1.839v13.456h-1.839v-7.062h-2.358Z" transform="translate(-349.812 -483.248)" fill="#fff"/>
        <path id="패스_16085" data-name="패스 16085" d="M388.055,490.7h1.782c.549,0,1.067-.005,1.549-.016v-.663a3.277,3.277,0,0,1-1.663-.637,1.442,1.442,0,0,1-.58-1.155v-.378a1.548,1.548,0,0,1,.808-1.321,5.4,5.4,0,0,1,4.658,0,1.548,1.548,0,0,1,.808,1.321v.378a1.466,1.466,0,0,1-.57,1.15,3.258,3.258,0,0,1-1.658.643v.622c.663-.021,1.254-.042,1.757-.073s.979-.067,1.409-.114l.13,1.461q-.591.07-1.368.124c-.518.036-1.114.062-1.793.078s-1.451.036-2.321.041-1.85.016-2.953.016V490.7Zm3.311-6.482V483.06h1.824v1.156h2.72v1.477h-7.337v-1.477Zm-1.575,8.591h9.042v4.078h-1.865v-2.591h-7.176Zm2.487-5.451a2.384,2.384,0,0,0-1.057.187c-.243.124-.363.275-.363.451v.088c0,.171.119.321.363.446a3.088,3.088,0,0,0,2.114,0c.244-.124.363-.275.363-.446v-.088c0-.176-.119-.321-.363-.451A2.353,2.353,0,0,0,392.278,487.355Zm6.555-.088h1.782v1.591h-1.782V492.2h-1.808v-8.943h1.808Z" transform="translate(-362.07 -483.06)" fill="#fff"/>
        <path id="패스_16086" data-name="패스 16086" d="M417.717,490.969a3.92,3.92,0,0,1-1.456-.254,3.306,3.306,0,0,1-1.093-.689,3.006,3.006,0,0,1-.689-1,2.958,2.958,0,0,1-.238-1.171v-.808a2.939,2.939,0,0,1,.238-1.171,3.005,3.005,0,0,1,.689-1,3.3,3.3,0,0,1,1.093-.689,4.3,4.3,0,0,1,2.912,0,3.306,3.306,0,0,1,1.093.689,3.007,3.007,0,0,1,.689,1,2.959,2.959,0,0,1,.238,1.171v.808a2.941,2.941,0,0,1-.238,1.171,3.007,3.007,0,0,1-.689,1,3.307,3.307,0,0,1-1.093.689A4.008,4.008,0,0,1,417.717,490.969Zm0-5.456a1.932,1.932,0,0,0-.731.135,1.732,1.732,0,0,0-.549.368,1.665,1.665,0,0,0-.347.534,1.624,1.624,0,0,0-.124.622v.549a1.594,1.594,0,0,0,.124.627,1.7,1.7,0,0,0,.347.529,1.65,1.65,0,0,0,.549.368,1.837,1.837,0,0,0,.731.135,1.932,1.932,0,0,0,.731-.135,1.65,1.65,0,0,0,.549-.368,1.7,1.7,0,0,0,.347-.529,1.611,1.611,0,0,0,.124-.627v-.549a1.685,1.685,0,0,0-.472-1.155,1.576,1.576,0,0,0-.549-.368A1.913,1.913,0,0,0,417.717,485.513Zm.565,9.679h6.943v1.565h-8.777v-4.513h1.839v2.948Zm6.731-2.171h-1.824V483.44h1.824Z" transform="translate(-374.69 -483.243)" fill="#fff"/>
        <path id="패스_16087" data-name="패스 16087" d="M440,492.689c.725-.435,1.342-.819,1.85-1.155a14.158,14.158,0,0,0,1.28-.933,5.388,5.388,0,0,0,.808-.808,3.027,3.027,0,0,0,.446-.772,3.093,3.093,0,0,0,.2-.824,9.227,9.227,0,0,0,.041-.969v-1h-4.383v-1.575h6.223v2.663a11.235,11.235,0,0,1-.073,1.316,4.462,4.462,0,0,1-.28,1.109,3.871,3.871,0,0,1-.6.99,7.4,7.4,0,0,1-.99.99,16.731,16.731,0,0,1-1.482,1.1c-.586.389-1.275.829-2.078,1.321Zm10.736,4.207H448.9V483.44h1.839Z" transform="translate(-387.102 -483.243)" fill="#fff"/>
        <path id="패스_16088" data-name="패스 16088" d="M468.236,490.191a4.142,4.142,0,0,1-1.5-.249,3.234,3.234,0,0,1-1.078-.658,2.742,2.742,0,0,1-.653-.938,2.878,2.878,0,0,1-.218-1.109v-.4a2.9,2.9,0,0,1,.218-1.109,2.647,2.647,0,0,1,.653-.938,3.235,3.235,0,0,1,1.078-.658,4.146,4.146,0,0,1,1.5-.243,4.33,4.33,0,0,1,1.321.186,3.283,3.283,0,0,1,1.016.513,2.743,2.743,0,0,1,.689.762,3.051,3.051,0,0,1,.363.912h2.244V483.45h1.824v6.933h-1.824v-2.606h-2.233a2.712,2.712,0,0,1-1.036,1.7,3.437,3.437,0,0,1-1.021.518A4.278,4.278,0,0,1,468.236,490.191Zm0-4.762a2.134,2.134,0,0,0-.762.124,1.486,1.486,0,0,0-.534.332,1.335,1.335,0,0,0-.311.472,1.412,1.412,0,0,0-.1.518v.316a1.439,1.439,0,0,0,.1.523,1.335,1.335,0,0,0,.311.472,1.487,1.487,0,0,0,.534.332,2.4,2.4,0,0,0,1.523,0,1.486,1.486,0,0,0,.534-.332,1.336,1.336,0,0,0,.311-.472,1.447,1.447,0,0,0,.1-.523v-.316a1.42,1.42,0,0,0-.1-.518,1.335,1.335,0,0,0-.311-.472,1.485,1.485,0,0,0-.534-.332A2.134,2.134,0,0,0,468.236,485.429Zm7.451,5.555v5.933h-8.565v-5.933h1.808V492.5h4.948v-1.518Zm-1.808,4.43v-1.4H468.93v1.4Z" transform="translate(-399.047 -483.248)" fill="#fff"/>
      </g>
      <g id="그룹_979" data-name="그룹 979" transform="translate(0 0)">
        <path id="패스_16089" data-name="패스 16089" d="M337.91,462.6h1.145l1.575,4.7,1.637-4.7h1.083l-2.27,6.01h-.959Z" transform="translate(-337.91 -462.211)" fill="#fff"/>
        <path id="패스_16090" data-name="패스 16090" d="M352.595,469.415a2.789,2.789,0,0,1-.782.357,3.963,3.963,0,0,1-1.1.135,3.019,3.019,0,0,1-.777-.1,1.79,1.79,0,0,1-.674-.352,1.758,1.758,0,0,1-.477-.658,2.589,2.589,0,0,1-.181-1.031v-.477a2.572,2.572,0,0,1,.161-.964,1.868,1.868,0,0,1,.446-.668,1.78,1.78,0,0,1,.663-.389,2.631,2.631,0,0,1,.819-.124,2.487,2.487,0,0,1,.8.124,1.71,1.71,0,0,1,.637.378,1.789,1.789,0,0,1,.415.632,2.413,2.413,0,0,1,.15.881v.756h-3.078a1.1,1.1,0,0,0,.29.829,1.178,1.178,0,0,0,.845.28,2.778,2.778,0,0,0,.725-.088,2.811,2.811,0,0,0,.668-.29Zm-.9-2.285v-.2a1.138,1.138,0,0,0-.052-.352.707.707,0,0,0-.181-.29.975.975,0,0,0-.316-.2,1.26,1.26,0,0,0-.466-.073,1.046,1.046,0,0,0-.788.275.923.923,0,0,0-.264.668v.176H351.7Z" transform="translate(-343.061 -463.435)" fill="#fff"/>
        <path id="패스_16091" data-name="패스 16091" d="M360.813,465.15a1.913,1.913,0,0,1,.6.093,1.368,1.368,0,0,1,.871.824,2.076,2.076,0,0,1,.135.782v2.995h-1.052v-2.767c0-.674-.29-1.01-.876-1.01a1.339,1.339,0,0,0-.3.036.847.847,0,0,0-.326.15.874.874,0,0,0-.264.321,1.19,1.19,0,0,0-.109.549v2.72H358.44v-4.6h.995v.523h.016a1.308,1.308,0,0,1,.6-.487A2.077,2.077,0,0,1,360.813,465.15Z" transform="translate(-347.802 -463.44)" fill="#fff"/>
        <path id="패스_16092" data-name="패스 16092" d="M368.316,465.112h-.736v-.865h.736V463.07h1.052v1.176h1.161v.865h-1.161v2.42a.475.475,0,0,0,.119.383.536.536,0,0,0,.332.093,1.58,1.58,0,0,0,.311-.031,2.038,2.038,0,0,0,.337-.1l.166.845a1.982,1.982,0,0,1-.389.13,2.3,2.3,0,0,1-.554.062,1.991,1.991,0,0,1-.658-.093.984.984,0,0,1-.425-.269.974.974,0,0,1-.223-.43,2.207,2.207,0,0,1-.067-.58Z" transform="translate(-352.207 -462.438)" fill="#fff"/>
        <path id="패스_16093" data-name="패스 16093" d="M376.6,470.009a1.589,1.589,0,0,1-1.161-.43,1.706,1.706,0,0,1-.435-1.269V465.34h1.052v2.746a1.5,1.5,0,0,0,.067.5.823.823,0,0,0,.181.311.642.642,0,0,0,.275.161,1.185,1.185,0,0,0,.342.047,1.1,1.1,0,0,0,.332-.052.781.781,0,0,0,.311-.176,1.01,1.01,0,0,0,.238-.332,1.269,1.269,0,0,0,.093-.518v-2.679h1.052v4.6h-1v-.549h-.016a1.1,1.1,0,0,1-.249.285,1.5,1.5,0,0,1-.332.192,1.78,1.78,0,0,1-.378.114A3.006,3.006,0,0,1,376.6,470.009Z" transform="translate(-355.782 -463.532)" fill="#fff"/>
        <path id="패스_16094" data-name="패스 16094" d="M387.7,466.2a1.252,1.252,0,0,0-.249-.073,1.954,1.954,0,0,0-.332-.026,1.041,1.041,0,0,0-.4.078.989.989,0,0,0-.326.212,1,1,0,0,0-.218.326,1.074,1.074,0,0,0-.078.415v2.725H385.04v-4.6h1.01v.668h.016a1.552,1.552,0,0,1,.487-.56,1.372,1.372,0,0,1,.8-.207,2.739,2.739,0,0,1,.352.026,1.744,1.744,0,0,1,.3.067Z" transform="translate(-360.62 -463.445)" fill="#fff"/>
        <path id="패스_16095" data-name="패스 16095" d="M395.575,469.415a2.787,2.787,0,0,1-.782.357,3.962,3.962,0,0,1-1.1.135,3.019,3.019,0,0,1-.777-.1,1.79,1.79,0,0,1-.674-.352,1.757,1.757,0,0,1-.477-.658,2.587,2.587,0,0,1-.181-1.031v-.477a2.572,2.572,0,0,1,.161-.964,1.867,1.867,0,0,1,.446-.668,1.781,1.781,0,0,1,.663-.389,2.63,2.63,0,0,1,.819-.124,2.487,2.487,0,0,1,.8.124,1.709,1.709,0,0,1,.637.378,1.788,1.788,0,0,1,.414.632,2.412,2.412,0,0,1,.15.881v.756H392.6a1.1,1.1,0,0,0,.29.829,1.178,1.178,0,0,0,.845.28,2.777,2.777,0,0,0,.725-.088,2.808,2.808,0,0,0,.668-.29Zm-.891-2.285v-.2a1.138,1.138,0,0,0-.052-.352.708.708,0,0,0-.181-.29.975.975,0,0,0-.316-.2,1.26,1.26,0,0,0-.466-.073,1.046,1.046,0,0,0-.788.275.923.923,0,0,0-.264.668v.176h2.067Z" transform="translate(-363.771 -463.435)" fill="#fff"/>
        <path id="패스_16096" data-name="패스 16096" d="M409.425,462.6v.886h-2.808V465.1h2.637v.865h-2.637v1.762h2.871v.886H405.56v-6.01h3.865Z" transform="translate(-370.507 -462.211)" fill="#fff"/>
        <path id="패스_16097" data-name="패스 16097" d="M417.6,465.15a1.913,1.913,0,0,1,.6.093,1.368,1.368,0,0,1,.87.824,2.074,2.074,0,0,1,.135.782v2.995h-1.052v-2.767c0-.674-.29-1.01-.876-1.01a1.338,1.338,0,0,0-.3.036.847.847,0,0,0-.326.15.874.874,0,0,0-.264.321,1.19,1.19,0,0,0-.109.549v2.72H415.23v-4.6h.99v.523h.016a1.282,1.282,0,0,1,.6-.487A2.163,2.163,0,0,1,417.6,465.15Z" transform="translate(-375.167 -463.44)" fill="#fff"/>
        <path id="패스_16098" data-name="패스 16098" d="M425.116,465.112h-.736v-.865h.736V463.07h1.052v1.176h1.161v.865h-1.161v2.42a.475.475,0,0,0,.119.383.536.536,0,0,0,.332.093,1.542,1.542,0,0,0,.311-.031,2.038,2.038,0,0,0,.337-.1l.166.845a1.982,1.982,0,0,1-.389.13,2.268,2.268,0,0,1-.554.062,2.013,2.013,0,0,1-.658-.093.984.984,0,0,1-.425-.269,1.037,1.037,0,0,1-.228-.43,2.2,2.2,0,0,1-.067-.58v-2.425Z" transform="translate(-379.576 -462.438)" fill="#fff"/>
        <path id="패스_16099" data-name="패스 16099" d="M435.395,469.415a2.789,2.789,0,0,1-.782.357,3.962,3.962,0,0,1-1.1.135,3.019,3.019,0,0,1-.777-.1,1.79,1.79,0,0,1-.674-.352,1.757,1.757,0,0,1-.477-.658,2.588,2.588,0,0,1-.181-1.031v-.477a2.571,2.571,0,0,1,.161-.964,1.867,1.867,0,0,1,.446-.668,1.78,1.78,0,0,1,.663-.389,2.63,2.63,0,0,1,.819-.124,2.487,2.487,0,0,1,.8.124,1.709,1.709,0,0,1,.637.378,1.788,1.788,0,0,1,.415.632,2.412,2.412,0,0,1,.15.881v.756h-3.078a1.1,1.1,0,0,0,.29.829,1.178,1.178,0,0,0,.845.28,2.778,2.778,0,0,0,.725-.088,2.811,2.811,0,0,0,.668-.29Zm-.891-2.285v-.2a1.138,1.138,0,0,0-.052-.352.706.706,0,0,0-.181-.29.975.975,0,0,0-.316-.2,1.26,1.26,0,0,0-.466-.073,1.046,1.046,0,0,0-.788.275.922.922,0,0,0-.264.668v.176H434.5Z" transform="translate(-382.958 -463.435)" fill="#fff"/>
        <path id="패스_16100" data-name="패스 16100" d="M443.918,466.2a1.251,1.251,0,0,0-.249-.073,1.954,1.954,0,0,0-.332-.026,1.042,1.042,0,0,0-.4.078.991.991,0,0,0-.326.212,1,1,0,0,0-.218.326,1.076,1.076,0,0,0-.078.415v2.725H441.26v-4.6h1.01v.668h.016a1.552,1.552,0,0,1,.487-.56,1.372,1.372,0,0,1,.8-.207,2.673,2.673,0,0,1,.352.026,1.865,1.865,0,0,1,.3.067Z" transform="translate(-387.709 -463.445)" fill="#fff"/>
        <path id="패스_16101" data-name="패스 16101" d="M450.619,469.912a1.586,1.586,0,0,1-.715-.145,1.289,1.289,0,0,1-.482-.389v2.254H448.37v-6.378h1.01v.5a1.133,1.133,0,0,1,.275-.29,1.3,1.3,0,0,1,.332-.181,1.7,1.7,0,0,1,.352-.1,1.983,1.983,0,0,1,.337-.031,2.055,2.055,0,0,1,.788.14,1.538,1.538,0,0,1,.565.394,1.578,1.578,0,0,1,.337.617,2.615,2.615,0,0,1,.114.8v.808a2.452,2.452,0,0,1-.13.834,1.85,1.85,0,0,1-.373.627,1.58,1.58,0,0,1-.586.394A1.954,1.954,0,0,1,450.619,469.912Zm.808-2.637a1.574,1.574,0,0,0-.228-.907.837.837,0,0,0-.736-.321,1.016,1.016,0,0,0-.8.306,1.123,1.123,0,0,0-.269.782v.974a.674.674,0,0,0,.083.321.944.944,0,0,0,.228.29,1.126,1.126,0,0,0,.342.212,1.111,1.111,0,0,0,.44.083.809.809,0,0,0,.694-.321,1.463,1.463,0,0,0,.238-.9v-.523Z" transform="translate(-391.135 -463.44)" fill="#fff"/>
        <path id="패스_16102" data-name="패스 16102" d="M460.9,466.2a1.253,1.253,0,0,0-.249-.073,1.954,1.954,0,0,0-.332-.026,1.042,1.042,0,0,0-.4.078.991.991,0,0,0-.326.212,1,1,0,0,0-.218.326,1.074,1.074,0,0,0-.078.415v2.725H458.24v-4.6h1.01v.668h.016a1.553,1.553,0,0,1,.487-.56,1.372,1.372,0,0,1,.8-.207,2.672,2.672,0,0,1,.352.026,1.863,1.863,0,0,1,.3.067Z" transform="translate(-395.891 -463.445)" fill="#fff"/>
        <path id="패스_16103" data-name="패스 16103" d="M465.34,461.85h1.1v1.135h-1.1Zm.026,1.808h1.052v4.6h-1.052Z" transform="translate(-399.312 -461.85)" fill="#fff"/>
        <path id="패스_16104" data-name="패스 16104" d="M471.032,469a1.341,1.341,0,0,0,.57-.1.363.363,0,0,0,.212-.363v-.052a.542.542,0,0,0-.031-.2.3.3,0,0,0-.13-.14,1,1,0,0,0-.29-.109c-.124-.031-.3-.073-.513-.119a4.494,4.494,0,0,1-.715-.2,1.533,1.533,0,0,1-.482-.28.97.97,0,0,1-.275-.4,1.627,1.627,0,0,1-.088-.56V466.4a1.12,1.12,0,0,1,.1-.461,1.068,1.068,0,0,1,.311-.414,1.538,1.538,0,0,1,.549-.3,2.517,2.517,0,0,1,.819-.114,5.411,5.411,0,0,1,.845.073,2.172,2.172,0,0,1,.845.342l-.451.756a1.524,1.524,0,0,0-.523-.223A2.477,2.477,0,0,0,471.2,466a1.359,1.359,0,0,0-.674.114.336.336,0,0,0-.187.3v.052a.455.455,0,0,0,.036.2.271.271,0,0,0,.124.13.978.978,0,0,0,.259.093c.114.026.254.057.435.093.29.062.539.124.756.192a1.6,1.6,0,0,1,.523.264,1,1,0,0,1,.306.409,1.626,1.626,0,0,1,.1.611v.093a1.16,1.16,0,0,1-.119.508,1.194,1.194,0,0,1-.352.425,1.763,1.763,0,0,1-.575.29,2.56,2.56,0,0,1-.777.109,3.918,3.918,0,0,1-1.088-.15,2.428,2.428,0,0,1-.845-.415l.466-.8a3.176,3.176,0,0,0,.658.342A1.94,1.94,0,0,0,471.032,469Z" transform="translate(-401.134 -463.426)" fill="#fff"/>
        <path id="패스_16105" data-name="패스 16105" d="M481.645,469.415a2.788,2.788,0,0,1-.782.357,3.962,3.962,0,0,1-1.1.135,2.989,2.989,0,0,1-.777-.1,1.791,1.791,0,0,1-.674-.352,1.757,1.757,0,0,1-.477-.658,2.588,2.588,0,0,1-.181-1.031v-.477a2.565,2.565,0,0,1,.166-.964,1.867,1.867,0,0,1,.446-.668,1.741,1.741,0,0,1,.663-.389,2.64,2.64,0,0,1,.824-.124,2.51,2.51,0,0,1,.8.124,1.709,1.709,0,0,1,.637.378,1.79,1.79,0,0,1,.415.632,2.412,2.412,0,0,1,.15.881v.756h-3.078a1.1,1.1,0,0,0,.29.829,1.173,1.173,0,0,0,.839.28,2.778,2.778,0,0,0,.725-.088,2.812,2.812,0,0,0,.668-.29Zm-.891-2.285v-.2a1.315,1.315,0,0,0-.052-.352.706.706,0,0,0-.181-.29.922.922,0,0,0-.316-.2,1.26,1.26,0,0,0-.466-.073,1.046,1.046,0,0,0-.788.275.923.923,0,0,0-.264.668v.176h2.067Z" transform="translate(-405.244 -463.435)" fill="#fff"/>
      </g>
    </g>
    <path id="패스_16106" data-name="패스 16106" d="M286.818,467.923,298.859,480.1h-6.482L281.89,469.493v17.332h22.389V456.57H298.1Z" transform="translate(-25.942 -7.27)" fill="url(#linear-gradient)"/>
    <path id="패스_16107" data-name="패스 16107" d="M236.181,449.215l-9.031-.005,12.2,12.548.155,17.515,4.539-4.625-.155-17.5Z" transform="translate(0 -4.216)" fill="url(#linear-gradient-2)"/>
    <path id="패스_16108" data-name="패스 16108" d="M276.828,440.481l-40.918-.021L240.4,445l7.7,7.8.155,17.213,6.368-6.384V445.75h5.28v12.6l17.249-17.291.58-.58Z" transform="translate(-4.221 0)" fill="#cfd1d2"/>
  </g>
</svg>
